<svg width="62" height="50" viewBox="0 0 62 50" fill="none" xmlns="http://www.w3.org/2000/svg">
<g clip-path="url(#clip0_460_38148)">
<path d="M37.1824 5.45119H24.0544C23.4301 5.45191 22.8316 5.70022 22.3902 6.14165C21.9487 6.58308 21.7004 7.18158 21.6997 7.80586V15.9751C21.7004 16.5993 21.9487 17.1978 22.3902 17.6393C22.8316 18.0807 23.4301 18.329 24.0544 18.3297H24.1758C24.2805 18.3223 24.3782 18.2749 24.4487 18.1972C24.5192 18.1196 24.557 18.0177 24.5542 17.9129C24.5515 17.808 24.5085 17.7083 24.434 17.6344C24.3596 17.5605 24.2595 17.5182 24.1547 17.5163H24.0544C23.8614 17.5163 23.6701 17.4794 23.4909 17.4078C23.4388 17.3882 23.388 17.365 23.3391 17.3384C23.0901 17.2079 22.8815 17.0118 22.7359 16.7713C22.5903 16.5308 22.5133 16.2551 22.5132 15.974V10.4252H38.7236V15.9751C38.7231 16.3837 38.5606 16.7754 38.2717 17.0644C37.9827 17.3533 37.591 17.5158 37.1824 17.5163H37.0451C36.9403 17.5182 36.8402 17.5605 36.7658 17.6344C36.6914 17.7083 36.6483 17.808 36.6456 17.9129C36.6429 18.0177 36.6807 18.1196 36.7512 18.1972C36.8217 18.2749 36.9194 18.3223 37.024 18.3297H37.1824C37.8066 18.329 38.4051 18.0807 38.8466 17.6393C39.288 17.1978 39.5363 16.5993 39.537 15.9751V7.80586C39.5363 7.18158 39.288 6.58308 38.8466 6.14165C38.4051 5.70022 37.8066 5.45191 37.1824 5.45119ZM22.5132 9.61171V7.80586C22.5136 7.39723 22.6761 7.00547 22.965 6.71653C23.254 6.42759 23.6457 6.26507 24.0544 6.26464H37.1824C37.591 6.26507 37.9827 6.42759 38.2717 6.71653C38.5606 7.00547 38.7231 7.39723 38.7236 7.80586V9.61171H22.5132Z" fill="#231F20"/>
<path d="M35.351 15.602H31.2512C31.1779 15.6082 31.1077 15.6342 31.048 15.6772C30.9883 15.7202 30.9414 15.7786 30.9122 15.8461C30.883 15.9136 30.8726 15.9878 30.8822 16.0607C30.8918 16.1336 30.9209 16.2026 30.9665 16.2603L32.4947 17.7874C32.571 17.8637 32.6745 17.9066 32.7824 17.9066C32.8903 17.9066 32.9938 17.8637 33.0701 17.7874C33.1464 17.7111 33.1893 17.6076 33.1893 17.4997C33.1893 17.3918 33.1464 17.2883 33.0701 17.212L32.2724 16.4154H35.351C35.4589 16.4154 35.5623 16.3726 35.6386 16.2963C35.7149 16.22 35.7577 16.1165 35.7577 16.0087C35.7577 15.9008 35.7149 15.7974 35.6386 15.7211C35.5623 15.6448 35.4589 15.602 35.351 15.602Z" fill="#231F20"/>
<path d="M35.6699 14.0879L34.1417 12.5597C34.1047 12.5185 34.0598 12.4853 34.0095 12.4621C33.9593 12.4389 33.9049 12.4262 33.8496 12.4247C33.7943 12.4233 33.7392 12.4331 33.6879 12.4537C33.6365 12.4742 33.5899 12.505 33.5508 12.5442C33.5118 12.5834 33.4811 12.6302 33.4608 12.6816C33.4404 12.7331 33.4308 12.7881 33.4324 12.8434C33.4341 12.8987 33.447 12.9531 33.4704 13.0033C33.4938 13.0534 33.5271 13.0982 33.5685 13.135L34.3662 13.9328H31.2854C31.1775 13.9328 31.0741 13.9756 30.9978 14.0519C30.9215 14.1282 30.8787 14.2316 30.8787 14.3395C30.8787 14.4473 30.9215 14.5508 30.9978 14.6271C31.0741 14.7034 31.1775 14.7462 31.2854 14.7462H35.3852C35.4584 14.7399 35.5287 14.7139 35.5884 14.6709C35.6481 14.6279 35.695 14.5696 35.7242 14.5021C35.7534 14.4346 35.7637 14.3604 35.7542 14.2875C35.7446 14.2145 35.7155 14.1456 35.6699 14.0879Z" fill="#231F20"/>
<path d="M24.8494 7.7397H24.4155C24.3076 7.7397 24.2042 7.78255 24.1279 7.85882C24.0516 7.9351 24.0088 8.03855 24.0088 8.14642C24.0088 8.25429 24.0516 8.35774 24.1279 8.43402C24.2042 8.5103 24.3076 8.55314 24.4155 8.55314H24.8494C24.9572 8.55314 25.0607 8.5103 25.137 8.43402C25.2132 8.35774 25.2561 8.25429 25.2561 8.14642C25.2561 8.03855 25.2132 7.9351 25.137 7.85882C25.0607 7.78255 24.9572 7.7397 24.8494 7.7397Z" fill="#231F20"/>
<path d="M27.075 7.7397H26.6411C26.5332 7.7397 26.4298 7.78255 26.3535 7.85882C26.2772 7.9351 26.2344 8.03855 26.2344 8.14642C26.2344 8.25429 26.2772 8.35774 26.3535 8.43402C26.4298 8.5103 26.5332 8.55314 26.6411 8.55314H27.075C27.1828 8.55314 27.2863 8.5103 27.3626 8.43402C27.4388 8.35774 27.4817 8.25429 27.4817 8.14642C27.4817 8.03855 27.4388 7.9351 27.3626 7.85882C27.2863 7.78255 27.1828 7.7397 27.075 7.7397Z" fill="#231F20"/>
<path d="M29.2746 7.7397H28.8407C28.7328 7.7397 28.6294 7.78255 28.5531 7.85882C28.4768 7.9351 28.434 8.03855 28.434 8.14642C28.434 8.25429 28.4768 8.35774 28.5531 8.43402C28.6294 8.5103 28.7328 8.55314 28.8407 8.55314H29.2746C29.3824 8.55314 29.4859 8.5103 29.5622 8.43402C29.6384 8.35774 29.6813 8.25429 29.6813 8.14642C29.6813 8.03855 29.6384 7.9351 29.5622 7.85882C29.4859 7.78255 29.3824 7.7397 29.2746 7.7397Z" fill="#231F20"/>
<path d="M28.7241 15.968L28.7181 15.9648C28.6154 15.9035 28.5063 15.8535 28.3928 15.8156C28.3722 15.8086 28.351 15.8026 28.3299 15.7966C28.3011 15.7895 28.2716 15.7857 28.242 15.7853H27.4047C27.1736 15.7795 26.9538 15.6837 26.7923 15.5182C26.6309 15.3527 26.5405 15.1306 26.5405 14.8994C26.5405 14.6682 26.6309 14.4461 26.7923 14.2806C26.9538 14.1151 27.1736 14.0193 27.4047 14.0136H28.6146C28.7189 14.0067 28.8166 13.9599 28.8874 13.8829C28.9583 13.806 28.9967 13.7047 28.9949 13.6001C28.9931 13.4955 28.9511 13.3957 28.8777 13.3212C28.8043 13.2467 28.705 13.2034 28.6005 13.2001H27.9795V12.2278C27.9745 12.1252 27.9308 12.0283 27.8573 11.9566C27.7838 11.8848 27.6858 11.8436 27.5831 11.8411H27.5625C27.4598 11.8436 27.3619 11.8848 27.2883 11.9566C27.2148 12.0283 27.1711 12.1252 27.1661 12.2278V13.2164H27.1558C27.1216 13.2218 27.0875 13.2272 27.0544 13.2343H27.0473C27.0126 13.2413 26.979 13.2505 26.9454 13.2598L26.9123 13.2695C26.889 13.2766 26.8656 13.2847 26.8423 13.2928L26.8098 13.3042C26.7773 13.3167 26.7453 13.3292 26.7138 13.3433C26.4393 13.4654 26.2021 13.6581 26.0264 13.9019C25.8507 14.1456 25.7428 14.4315 25.7137 14.7306C25.6846 15.0296 25.7353 15.331 25.8607 15.604C25.9861 15.8771 26.1817 16.1119 26.4275 16.2847C26.4638 16.3102 26.5007 16.3346 26.5392 16.3574C26.8016 16.5136 27.1015 16.5957 27.4069 16.5949H28.0869C28.1165 16.5953 28.146 16.5992 28.1748 16.6063C28.1963 16.6106 28.2173 16.617 28.2377 16.6253L28.2463 16.6291C28.2551 16.6327 28.2636 16.6368 28.2718 16.6415L28.2843 16.648L28.3234 16.6708C28.4875 16.7718 28.6142 16.9236 28.6842 17.1031C28.7542 17.2827 28.7637 17.4801 28.7112 17.6656C28.6587 17.851 28.5472 18.0142 28.3935 18.1305C28.2398 18.2467 28.0524 18.3096 27.8597 18.3097H26.3087C26.2039 18.3116 26.1038 18.3539 26.0294 18.4278C25.9549 18.5017 25.9119 18.6014 25.9092 18.7063C25.9064 18.8111 25.9442 18.9129 26.0147 18.9906C26.0852 19.0682 26.1829 19.1157 26.2876 19.1231H27.1666V19.7739C27.1712 19.8729 27.212 19.9669 27.2811 20.038C27.3502 20.1092 27.443 20.1525 27.5419 20.16C27.5628 20.1621 27.5839 20.1621 27.6048 20.16C27.7037 20.1525 27.7965 20.1092 27.8656 20.038C27.9347 19.9669 27.9755 19.8729 27.9801 19.7739V19.1236C28.0126 19.1215 28.0452 19.1182 28.0777 19.1139L28.0988 19.1112C28.1319 19.1068 28.1655 19.1014 28.1981 19.0944C28.5345 19.026 28.8423 18.8573 29.0809 18.6106C29.3195 18.3638 29.4778 18.0505 29.5348 17.712C29.5918 17.3735 29.5449 17.0256 29.4003 16.7143C29.2557 16.403 29.0201 16.1428 28.7247 15.968H28.7241Z" fill="#231F20"/>
<path d="M49.8474 28.4371C49.8203 28.5456 49.7688 28.654 49.7704 28.7625C49.8083 30.9203 49.3767 33.0277 49.0833 35.1497C48.8913 36.538 48.676 37.9225 48.4927 39.3113C48.4472 39.654 48.33 39.7853 47.9661 39.7777C46.8083 39.7527 45.6494 39.7679 44.4911 39.7652C44.3931 39.7566 44.2959 39.7416 44.1999 39.7202C44.3002 38.9832 44.3951 38.2636 44.4965 37.5445C45.105 33.2267 45.7147 28.9089 46.3257 24.5911C46.3536 24.3983 46.3932 24.2075 46.4445 24.0195C46.6071 23.4149 47.0697 22.9864 47.6917 22.9582C48.5187 22.9208 49.349 22.9279 50.1776 22.9452C50.6657 22.9555 51.0025 23.2646 51.1934 23.6763C51.8647 25.1224 52.5193 26.5763 53.157 28.038C53.7948 29.4996 54.4146 30.9684 55.0166 32.4441C55.2091 32.9154 55.3176 33.4203 55.4792 33.9084C55.5074 33.994 55.6093 34.0548 55.6776 34.1253C55.7194 34.038 55.8002 33.9485 55.7964 33.8628C55.6928 31.5781 56.2389 29.3617 56.5014 27.1139C56.6489 25.8444 56.8631 24.5824 57.0253 23.314C57.0654 22.9973 57.1993 22.917 57.4976 22.9208C58.6315 22.9338 59.7655 22.9311 60.8994 22.9208C61.195 22.9208 61.3089 22.9832 61.2606 23.3145C60.8629 26.051 60.4741 28.7889 60.0941 31.5282C59.785 33.7359 59.4732 35.9436 59.1804 38.154C59.0274 39.3059 58.5388 39.7636 57.3772 39.7695C56.8772 39.7722 56.374 39.7332 55.8778 39.7777C54.9266 39.8628 54.3691 39.4046 54.0193 38.5727C53.2693 36.788 52.5052 35.0092 51.7481 33.2272C51.4672 32.5667 51.1625 31.9143 50.9173 31.2408C50.6223 30.4273 50.3794 29.6003 50.1126 28.7798C50.0741 28.6616 50.0263 28.5466 49.9824 28.4306L49.8474 28.4371Z" fill="#D81616"/>
<path d="M21.2129 22.6828C23.2346 22.7034 24.8854 22.5803 26.509 22.9539C27.2021 23.1166 27.8734 23.3368 28.4363 23.7918C29.234 24.4366 29.5269 25.3373 29.5963 26.308C29.7172 27.9978 29.4336 29.6356 28.8224 31.2142C28.2964 32.5667 27.2774 33.321 25.8843 33.6345C24.195 34.0141 22.4954 33.9729 20.7904 33.7972C19.9157 33.7072 20.0925 33.7261 19.9911 34.4197C19.7481 36.083 19.522 37.7489 19.3029 39.4159C19.2688 39.6752 19.1706 39.7717 18.9103 39.7701C17.6299 39.7625 16.3496 39.7592 15.0692 39.7701C14.7492 39.7733 14.714 39.6486 14.7541 39.3709C15.0795 37.1161 15.3957 34.8595 15.7124 32.6036C16.1462 29.5125 16.58 26.4279 17.0014 23.3379C17.0437 23.0277 17.1402 22.8894 17.464 22.8747C18.8393 22.8172 20.2145 22.7364 21.2129 22.6828ZM22.6874 26.0304V26.0233C22.2736 26.0233 21.8582 26.0076 21.4455 26.0342C21.3403 26.0412 21.1673 26.1703 21.1538 26.263C20.9493 27.6106 20.7677 28.962 20.5789 30.3124C20.5545 30.487 20.5947 30.6079 20.7959 30.602C21.7319 30.5732 22.6706 30.5743 23.6028 30.4967C24.1164 30.4539 24.5437 30.1367 24.663 29.6166C24.8436 28.827 25.0063 28.0233 25.0605 27.218C25.1104 26.4772 24.7422 26.1161 24.0009 26.039C23.5681 25.9935 23.1261 26.0304 22.6874 26.0304Z" fill="#D81616"/>
<path d="M7.17223 36.1833C8.19826 36.2261 8.80998 35.2408 8.4667 34.3639C8.05781 33.788 6.82679 33.4962 6.17928 33.1258C4.92603 32.5201 3.44555 32.032 2.45911 31.0591C1.10987 29.8069 1.17061 27.5342 1.6923 25.8568C2.17006 24.2386 3.26931 23.2961 4.90217 22.9604C7.85716 22.352 10.7899 22.5266 13.7021 23.2641C14.3821 23.3633 13.8431 24.4366 13.8707 24.8986C13.8194 25.2728 13.7718 25.6473 13.7281 26.0222C13.6956 26.3021 13.5437 26.3335 13.3018 26.3286C11.4976 26.3031 9.69392 26.2744 7.8897 26.2744C7.29317 26.3124 6.37559 26.2706 6.07625 26.8774C5.92277 27.2364 5.78124 27.821 5.99978 28.1697C6.48406 28.7478 7.56486 28.9631 8.23948 29.34C8.83601 29.6041 9.42982 29.8693 10.0215 30.141C10.9542 30.5748 12.0057 31.1226 12.5329 32.013C13.4992 33.7766 13.1207 36.0938 12.2915 37.8617C11.3376 39.7674 8.99382 39.9544 7.10933 40.0895C4.84034 40.2017 2.59631 39.7641 0.360953 39.4333C0.0442504 39.3894 -0.0262481 39.2565 0.0258127 38.9452C0.0941424 38.5369 0.15271 38.1274 0.206398 37.7164C0.260085 37.3053 0.30835 36.8943 0.356073 36.4832C0.385899 36.2256 0.474836 36.1312 0.74219 36.1356C1.80022 36.1518 6.08438 36.2305 7.17223 36.1833Z" fill="#D81616"/>
<path d="M42.2069 29.5748C42.182 29.8124 42.163 30.0136 42.1386 30.2148C42.0567 30.8915 41.9651 31.5672 41.8935 32.2457C41.861 32.5537 41.7438 32.6746 41.4087 32.6719C39.5681 32.6551 37.727 32.6719 35.8859 32.6578C35.5508 32.6546 35.4136 32.7462 35.3794 33.0916C35.3073 33.8183 35.1852 34.5401 35.0979 35.2657C35.0128 35.9767 35.2221 36.2326 35.926 36.3021C36.0952 36.3189 36.2666 36.3216 36.4374 36.3216C38.1928 36.3216 39.9483 36.3286 41.7042 36.3178C42.009 36.3178 42.143 36.3796 42.1251 36.7207C42.08 37.5841 42.0589 38.449 42.0502 39.314C42.047 39.6068 41.8686 39.6209 41.6706 39.6318C40.6001 39.6893 39.5296 39.7657 38.458 39.7945C36.9938 39.8308 35.5296 39.8677 34.0708 39.8248C33.438 39.8064 32.7693 39.6909 32.1907 39.4452C31.0616 38.9572 30.464 37.9897 30.4553 36.7842C30.4483 35.7196 30.6012 34.6497 30.7384 33.5889C31.0388 31.2701 31.368 28.9544 31.6994 26.6394C31.8333 25.7023 32.1007 24.8254 32.7709 24.0944C33.5231 23.2744 34.4624 22.8932 35.5307 22.8758C37.1993 22.8487 38.8702 22.8758 40.5388 22.9208C41.586 22.9474 42.631 23.0461 43.6771 23.0987C43.9857 23.1139 44.073 23.2316 44.0188 23.5325C43.8702 24.3597 43.7362 25.1893 43.6169 26.0211C43.5942 26.1838 43.5443 26.2771 43.4575 26.3313C43.3654 26.3794 43.2617 26.4007 43.1581 26.3926C41.366 26.3825 39.5739 26.3825 37.7818 26.3926C36.4835 26.397 36.2709 26.5895 36.1007 27.8764C36.0464 28.2749 36.0047 28.6746 35.9488 29.0727C35.8854 29.5282 35.9054 29.5607 36.3582 29.5607C38.1381 29.5607 39.9181 29.5607 41.6983 29.5607C41.8496 29.5521 42.0047 29.5656 42.2069 29.5748Z" fill="#D81616"/>
<path d="M9.83279 43.115C9.8154 43.0618 9.79248 43.0141 9.76403 42.9719C9.7361 42.9292 9.70265 42.8929 9.66366 42.8628C9.62519 42.8328 9.58146 42.8099 9.53246 42.7941C9.48346 42.7783 9.42972 42.7704 9.37123 42.7704C9.27534 42.7704 9.18814 42.7951 9.10963 42.8447C9.03112 42.8942 8.96868 42.9672 8.92232 43.0636C8.87595 43.16 8.85277 43.2783 8.85277 43.4185C8.85277 43.5586 8.87621 43.6769 8.92311 43.7733C8.97 43.8697 9.03349 43.9427 9.11358 43.9922C9.19367 44.0418 9.28377 44.0665 9.38388 44.0665C9.47661 44.0665 9.55828 44.0468 9.62888 44.0073C9.70001 43.9672 9.75534 43.9108 9.79485 43.8381C9.8349 43.7649 9.85492 43.6787 9.85492 43.5797L9.91498 43.5923H9.42813V43.4185H10.0446V43.5923C10.0446 43.7256 10.0161 43.8416 9.95924 43.9401C9.90287 44.0386 9.82489 44.115 9.7253 44.1693C9.62625 44.223 9.51244 44.2499 9.38388 44.2499C9.24056 44.2499 9.11463 44.2162 9.00609 44.1487C8.89808 44.0813 8.81378 43.9854 8.75318 43.861C8.69312 43.7367 8.66309 43.5892 8.66309 43.4185C8.66309 43.2904 8.68021 43.1753 8.71446 43.0731C8.74923 42.9703 8.79823 42.8829 8.86146 42.8107C8.92469 42.7385 8.99951 42.6832 9.08592 42.6447C9.17233 42.6063 9.26743 42.587 9.37123 42.587C9.45659 42.587 9.53615 42.5999 9.60991 42.6257C9.6842 42.651 9.75033 42.6871 9.80829 42.734C9.86677 42.7804 9.91551 42.836 9.9545 42.9008C9.99349 42.9651 10.0204 43.0365 10.0351 43.115H9.83279Z" fill="#231F20"/>
<path d="M10.3803 44.2278V42.6092H10.9272C11.0537 42.6092 11.1575 42.6308 11.2386 42.674C11.3197 42.7166 11.3798 42.7754 11.4188 42.8502C11.4578 42.925 11.4773 43.0101 11.4773 43.1055C11.4773 43.2009 11.4578 43.2854 11.4188 43.3592C11.3798 43.4329 11.32 43.4909 11.2394 43.5331C11.1588 43.5747 11.0558 43.5955 10.9304 43.5955H10.4878V43.4185H10.9241C11.0105 43.4185 11.08 43.4058 11.1327 43.3805C11.1859 43.3552 11.2244 43.3194 11.2481 43.273C11.2723 43.2261 11.2844 43.1703 11.2844 43.1055C11.2844 43.0407 11.2723 42.984 11.2481 42.9356C11.2239 42.8871 11.1851 42.8497 11.1319 42.8233C11.0787 42.7965 11.0084 42.783 10.9209 42.783H10.5763V44.2278H10.3803ZM11.1422 43.5007L11.5405 44.2278H11.3129L10.9209 43.5007H11.1422Z" fill="#231F20"/>
<path d="M11.8039 44.2278V42.6092H12.7808V42.783H11.9999V43.3299H12.7302V43.5038H11.9999V44.0539H12.7934V44.2278H11.8039Z" fill="#231F20"/>
<path d="M13.2004 44.2278H12.9949L13.5893 42.6092H13.7916L14.3859 44.2278H14.1804L13.6968 42.8652H13.6841L13.2004 44.2278ZM13.2763 43.5955H14.1046V43.7694H13.2763V43.5955Z" fill="#231F20"/>
<path d="M14.3604 42.783V42.6092H15.5744V42.783H15.0654V44.2278H14.8694V42.783H14.3604Z" fill="#231F20"/>
<path d="M16.4143 42.783V42.6092H17.6283V42.783H17.1193V44.2278H16.9233V42.783H16.4143Z" fill="#231F20"/>
<path d="M17.9308 44.2278V42.6092H18.9077V42.783H18.1268V43.3299H18.8571V43.5038H18.1268V44.0539H18.9203V44.2278H17.9308Z" fill="#231F20"/>
<path d="M20.5634 43.115H20.3674C20.3558 43.0586 20.3355 43.0091 20.3066 42.9664C20.2781 42.9237 20.2433 42.8879 20.2022 42.8589C20.1617 42.8294 20.1166 42.8073 20.0671 42.7925C20.0176 42.7778 19.9659 42.7704 19.9122 42.7704C19.8142 42.7704 19.7254 42.7951 19.6458 42.8447C19.5668 42.8942 19.5038 42.9672 19.457 43.0636C19.4106 43.16 19.3874 43.2783 19.3874 43.4185C19.3874 43.5586 19.4106 43.6769 19.457 43.7733C19.5038 43.8697 19.5668 43.9427 19.6458 43.9922C19.7254 44.0418 19.8142 44.0665 19.9122 44.0665C19.9659 44.0665 20.0176 44.0592 20.0671 44.0444C20.1166 44.0297 20.1617 44.0078 20.2022 43.9788C20.2433 43.9493 20.2781 43.9132 20.3066 43.8705C20.3355 43.8273 20.3558 43.7778 20.3674 43.7219H20.5634C20.5487 43.8047 20.5218 43.8787 20.4828 43.944C20.4438 44.0094 20.3954 44.065 20.3374 44.1108C20.2794 44.1561 20.2144 44.1906 20.1422 44.2143C20.0705 44.238 19.9939 44.2499 19.9122 44.2499C19.7741 44.2499 19.6514 44.2162 19.5439 44.1487C19.4364 44.0813 19.3518 43.9854 19.2902 43.861C19.2285 43.7367 19.1977 43.5892 19.1977 43.4185C19.1977 43.2477 19.2285 43.1002 19.2902 42.9759C19.3518 42.8515 19.4364 42.7556 19.5439 42.6882C19.6514 42.6207 19.7741 42.587 19.9122 42.587C19.9939 42.587 20.0705 42.5989 20.1422 42.6226C20.2144 42.6463 20.2794 42.6811 20.3374 42.7269C20.3954 42.7722 20.4438 42.8275 20.4828 42.8929C20.5218 42.9577 20.5487 43.0317 20.5634 43.115Z" fill="#231F20"/>
<path d="M20.8802 44.2278V42.6092H21.0762V43.3299H21.9392V42.6092H22.1352V44.2278H21.9392V43.5038H21.0762V44.2278H20.8802Z" fill="#231F20"/>
<path d="M23.8111 42.6092V44.2278H23.6215L22.7394 42.9569H22.7236V44.2278H22.5276V42.6092H22.7173L23.6025 43.8832H23.6183V42.6092H23.8111Z" fill="#231F20"/>
<path d="M25.569 43.4185C25.569 43.5892 25.5382 43.7367 25.4766 43.861C25.4149 43.9854 25.3304 44.0813 25.2229 44.1487C25.1154 44.2162 24.9926 44.2499 24.8546 44.2499C24.7165 44.2499 24.5938 44.2162 24.4863 44.1487C24.3788 44.0813 24.2942 43.9854 24.2326 43.861C24.1709 43.7367 24.1401 43.5892 24.1401 43.4185C24.1401 43.2477 24.1709 43.1002 24.2326 42.9759C24.2942 42.8515 24.3788 42.7556 24.4863 42.6882C24.5938 42.6207 24.7165 42.587 24.8546 42.587C24.9926 42.587 25.1154 42.6207 25.2229 42.6882C25.3304 42.7556 25.4149 42.8515 25.4766 42.9759C25.5382 43.1002 25.569 43.2477 25.569 43.4185ZM25.3794 43.4185C25.3794 43.2783 25.3559 43.16 25.309 43.0636C25.2627 42.9672 25.1997 42.8942 25.1201 42.8447C25.0411 42.7951 24.9526 42.7704 24.8546 42.7704C24.7566 42.7704 24.6678 42.7951 24.5882 42.8447C24.5092 42.8942 24.4462 42.9672 24.3993 43.0636C24.353 43.16 24.3298 43.2783 24.3298 43.4185C24.3298 43.5586 24.353 43.6769 24.3993 43.7733C24.4462 43.8697 24.5092 43.9427 24.5882 43.9922C24.6678 44.0418 24.7566 44.0665 24.8546 44.0665C24.9526 44.0665 25.0411 44.0418 25.1201 43.9922C25.1997 43.9427 25.2627 43.8697 25.309 43.7733C25.3559 43.6769 25.3794 43.5586 25.3794 43.4185Z" fill="#231F20"/>
<path d="M25.8986 44.2278V42.6092H26.0946V44.0539H26.847V44.2278H25.8986Z" fill="#231F20"/>
<path d="M28.4532 43.4185C28.4532 43.5892 28.4224 43.7367 28.3607 43.861C28.2991 43.9854 28.2145 44.0813 28.107 44.1487C27.9995 44.2162 27.8768 44.2499 27.7387 44.2499C27.6007 44.2499 27.4779 44.2162 27.3704 44.1487C27.2629 44.0813 27.1784 43.9854 27.1167 43.861C27.0551 43.7367 27.0243 43.5892 27.0243 43.4185C27.0243 43.2477 27.0551 43.1002 27.1167 42.9759C27.1784 42.8515 27.2629 42.7556 27.3704 42.6882C27.4779 42.6207 27.6007 42.587 27.7387 42.587C27.8768 42.587 27.9995 42.6207 28.107 42.6882C28.2145 42.7556 28.2991 42.8515 28.3607 42.9759C28.4224 43.1002 28.4532 43.2477 28.4532 43.4185ZM28.2635 43.4185C28.2635 43.2783 28.2401 43.16 28.1932 43.0636C28.1468 42.9672 28.0838 42.8942 28.0043 42.8447C27.9252 42.7951 27.8367 42.7704 27.7387 42.7704C27.6407 42.7704 27.5519 42.7951 27.4724 42.8447C27.3933 42.8942 27.3304 42.9672 27.2835 43.0636C27.2371 43.16 27.2139 43.2783 27.2139 43.4185C27.2139 43.5586 27.2371 43.6769 27.2835 43.7733C27.3304 43.8697 27.3933 43.9427 27.4724 43.9922C27.5519 44.0418 27.6407 44.0665 27.7387 44.0665C27.8367 44.0665 27.9252 44.0418 28.0043 43.9922C28.0838 43.9427 28.1468 43.8697 28.1932 43.7733C28.2401 43.6769 28.2635 43.5586 28.2635 43.4185Z" fill="#231F20"/>
<path d="M29.8892 43.115C29.8719 43.0618 29.8489 43.0141 29.8205 42.9719C29.7926 42.9292 29.7591 42.8929 29.7201 42.8628C29.6816 42.8328 29.6379 42.8099 29.5889 42.7941C29.5399 42.7783 29.4862 42.7704 29.4277 42.7704C29.3318 42.7704 29.2446 42.7951 29.1661 42.8447C29.0876 42.8942 29.0251 42.9672 28.9788 43.0636C28.9324 43.16 28.9092 43.2783 28.9092 43.4185C28.9092 43.5586 28.9327 43.6769 28.9796 43.7733C29.0265 43.8697 29.0899 43.9427 29.17 43.9922C29.2501 44.0418 29.3402 44.0665 29.4403 44.0665C29.5331 44.0665 29.6147 44.0468 29.6853 44.0073C29.7565 43.9672 29.8118 43.9108 29.8513 43.8381C29.8913 43.7649 29.9114 43.6787 29.9114 43.5797L29.9714 43.5923H29.4846V43.4185H30.1011V43.5923C30.1011 43.7256 30.0726 43.8416 30.0157 43.9401C29.9593 44.0386 29.8813 44.115 29.7818 44.1693C29.6827 44.223 29.5689 44.2499 29.4403 44.2499C29.297 44.2499 29.1711 44.2162 29.0625 44.1487C28.9545 44.0813 28.8702 43.9854 28.8096 43.861C28.7496 43.7367 28.7195 43.5892 28.7195 43.4185C28.7195 43.2904 28.7367 43.1753 28.7709 43.0731C28.8057 42.9703 28.8547 42.8829 28.9179 42.8107C28.9811 42.7385 29.056 42.6832 29.1424 42.6447C29.2288 42.6063 29.3239 42.587 29.4277 42.587C29.513 42.587 29.5926 42.5999 29.6664 42.6257C29.7407 42.651 29.8068 42.6871 29.8647 42.734C29.9232 42.7804 29.972 42.836 30.011 42.9008C30.0499 42.9651 30.0768 43.0365 30.0916 43.115H29.8892Z" fill="#231F20"/>
<path d="M30.2477 42.6092H30.4721L30.921 43.3647H30.94L31.3889 42.6092H31.6134L31.0285 43.5607V44.2278H30.8325V43.5607L30.2477 42.6092Z" fill="#231F20"/>
<path d="M32.0437 44.0065L32.0311 44.0918C32.0221 44.1519 32.0084 44.2162 31.99 44.2847C31.972 44.3532 31.9533 44.4177 31.9338 44.4783C31.9144 44.5389 31.8983 44.5871 31.8856 44.6229H31.7434C31.7502 44.5892 31.7592 44.5447 31.7702 44.4894C31.7813 44.434 31.7924 44.3721 31.8034 44.3036C31.815 44.2357 31.8245 44.1661 31.8319 44.095L31.8414 44.0065H32.0437Z" fill="#231F20"/>
<path d="M34.147 43.115C34.1296 43.0618 34.1067 43.0141 34.0782 42.9719C34.0503 42.9292 34.0169 42.8929 33.9779 42.8628C33.9394 42.8328 33.8957 42.8099 33.8467 42.7941C33.7977 42.7783 33.7439 42.7704 33.6854 42.7704C33.5895 42.7704 33.5023 42.7951 33.4238 42.8447C33.3453 42.8942 33.2829 42.9672 33.2365 43.0636C33.1902 43.16 33.167 43.2783 33.167 43.4185C33.167 43.5586 33.1904 43.6769 33.2373 43.7733C33.2842 43.8697 33.3477 43.9427 33.4278 43.9922C33.5079 44.0418 33.598 44.0665 33.6981 44.0665C33.7908 44.0665 33.8725 44.0468 33.9431 44.0073C34.0142 43.9672 34.0695 43.9108 34.1091 43.8381C34.1491 43.7649 34.1691 43.6787 34.1691 43.5797L34.2292 43.5923H33.7423V43.4185H34.3588V43.5923C34.3588 43.7256 34.3304 43.8416 34.2735 43.9401C34.2171 44.0386 34.1391 44.115 34.0395 44.1693C33.9405 44.223 33.8266 44.2499 33.6981 44.2499C33.5548 44.2499 33.4288 44.2162 33.3203 44.1487C33.2123 44.0813 33.128 43.9854 33.0674 43.861C33.0073 43.7367 32.9773 43.5892 32.9773 43.4185C32.9773 43.2904 32.9944 43.1753 33.0287 43.0731C33.0634 42.9703 33.1124 42.8829 33.1757 42.8107C33.2389 42.7385 33.3137 42.6832 33.4001 42.6447C33.4865 42.6063 33.5816 42.587 33.6854 42.587C33.7708 42.587 33.8504 42.5999 33.9241 42.6257C33.9984 42.651 34.0645 42.6871 34.1225 42.734C34.181 42.7804 34.2297 42.836 34.2687 42.9008C34.3077 42.9651 34.3346 43.0365 34.3493 43.115H34.147Z" fill="#231F20"/>
<path d="M34.6945 44.2278V42.6092H35.2414C35.3679 42.6092 35.4717 42.6308 35.5528 42.674C35.634 42.7166 35.694 42.7754 35.733 42.8502C35.772 42.925 35.7915 43.0101 35.7915 43.1055C35.7915 43.2009 35.772 43.2854 35.733 43.3592C35.694 43.4329 35.6342 43.4909 35.5536 43.5331C35.473 43.5747 35.37 43.5955 35.2446 43.5955H34.802V43.4185H35.2383C35.3247 43.4185 35.3942 43.4058 35.4469 43.3805C35.5001 43.3552 35.5386 43.3194 35.5623 43.273C35.5865 43.2261 35.5987 43.1703 35.5987 43.1055C35.5987 43.0407 35.5865 42.984 35.5623 42.9356C35.5381 42.8871 35.4993 42.8497 35.4461 42.8233C35.3929 42.7965 35.3226 42.783 35.2351 42.783H34.8905V44.2278H34.6945ZM35.4564 43.5007L35.8547 44.2278H35.6271L35.2351 43.5007H35.4564Z" fill="#231F20"/>
<path d="M36.1181 44.2278V42.6092H37.095V42.783H36.3141V43.3299H37.0444V43.5038H36.3141V44.0539H37.1076V44.2278H36.1181Z" fill="#231F20"/>
<path d="M37.5146 44.2278H37.3091L37.9035 42.6092H38.1058L38.7001 44.2278H38.4947L38.011 42.8652H37.9983L37.5146 44.2278ZM37.5905 43.5955H38.4188V43.7694H37.5905V43.5955Z" fill="#231F20"/>
<path d="M38.6747 42.783V42.6092H39.8886V42.783H39.3796V44.2278H39.1836V42.783H38.6747Z" fill="#231F20"/>
<path d="M40.8171 44.2278V42.6092H41.364C41.491 42.6092 41.5948 42.6321 41.6754 42.6779C41.7565 42.7232 41.8166 42.7846 41.8556 42.8621C41.8946 42.9395 41.9141 43.0259 41.9141 43.1213C41.9141 43.2167 41.8946 43.3033 41.8556 43.3813C41.8171 43.4593 41.7576 43.5215 41.677 43.5678C41.5963 43.6137 41.4931 43.6366 41.3671 43.6366H40.9751V43.4627H41.3608C41.4478 43.4627 41.5176 43.4477 41.5703 43.4177C41.623 43.3876 41.6612 43.3471 41.6849 43.296C41.7091 43.2443 41.7212 43.1861 41.7212 43.1213C41.7212 43.0565 41.7091 42.9985 41.6849 42.9474C41.6612 42.8963 41.6227 42.8563 41.5695 42.8273C41.5163 42.7978 41.4457 42.783 41.3577 42.783H41.0131V44.2278H40.8171Z" fill="#231F20"/>
<path d="M42.2298 44.2278V42.6092H43.2067V42.783H42.4258V43.3299H43.1561V43.5038H42.4258V44.0539H43.2193V44.2278H42.2298Z" fill="#231F20"/>
<path d="M44.9257 43.4185C44.9257 43.5892 44.8948 43.7367 44.8332 43.861C44.7715 43.9854 44.687 44.0813 44.5795 44.1487C44.472 44.2162 44.3492 44.2499 44.2112 44.2499C44.0731 44.2499 43.9504 44.2162 43.8429 44.1487C43.7354 44.0813 43.6508 43.9854 43.5892 43.861C43.5275 43.7367 43.4967 43.5892 43.4967 43.4185C43.4967 43.2477 43.5275 43.1002 43.5892 42.9759C43.6508 42.8515 43.7354 42.7556 43.8429 42.6882C43.9504 42.6207 44.0731 42.587 44.2112 42.587C44.3492 42.587 44.472 42.6207 44.5795 42.6882C44.687 42.7556 44.7715 42.8515 44.8332 42.9759C44.8948 43.1002 44.9257 43.2477 44.9257 43.4185ZM44.736 43.4185C44.736 43.2783 44.7125 43.16 44.6656 43.0636C44.6193 42.9672 44.5563 42.8942 44.4767 42.8447C44.3977 42.7951 44.3092 42.7704 44.2112 42.7704C44.1132 42.7704 44.0244 42.7951 43.9448 42.8447C43.8658 42.8942 43.8028 42.9672 43.756 43.0636C43.7096 43.16 43.6864 43.2783 43.6864 43.4185C43.6864 43.5586 43.7096 43.6769 43.756 43.7733C43.8028 43.8697 43.8658 43.9427 43.9448 43.9922C44.0244 44.0418 44.1132 44.0665 44.2112 44.0665C44.3092 44.0665 44.3977 44.0418 44.4767 43.9922C44.5563 43.9427 44.6193 43.8697 44.6656 43.7733C44.7125 43.6769 44.736 43.5586 44.736 43.4185Z" fill="#231F20"/>
<path d="M45.2552 44.2278V42.6092H45.8021C45.9291 42.6092 46.0329 42.6321 46.1135 42.6779C46.1947 42.7232 46.2547 42.7846 46.2937 42.8621C46.3327 42.9395 46.3522 43.0259 46.3522 43.1213C46.3522 43.2167 46.3327 43.3033 46.2937 43.3813C46.2553 43.4593 46.1957 43.5215 46.1151 43.5678C46.0345 43.6137 45.9312 43.6366 45.8053 43.6366H45.4133V43.4627H45.799C45.8859 43.4627 45.9557 43.4477 46.0084 43.4177C46.0611 43.3876 46.0993 43.3471 46.123 43.296C46.1473 43.2443 46.1594 43.1861 46.1594 43.1213C46.1594 43.0565 46.1473 42.9985 46.123 42.9474C46.0993 42.8963 46.0608 42.8563 46.0076 42.8273C45.9544 42.7978 45.8838 42.783 45.7958 42.783H45.4512V44.2278H45.2552Z" fill="#231F20"/>
<path d="M46.668 44.2278V42.6092H46.864V44.0539H47.6164V44.2278H46.668Z" fill="#231F20"/>
<path d="M47.9198 44.2278V42.6092H48.8967V42.783H48.1159V43.3299H48.8461V43.5038H48.1159V44.0539H48.9094V44.2278H47.9198Z" fill="#231F20"/>
</g>
<defs>
<clipPath id="clip0_460_38148">
<rect width="61.2798" height="50" fill="white"/>
</clipPath>
</defs>
</svg>
